<svg xmlns="http://www.w3.org/2000/svg" viewBox="0 0 133.08 64"><defs><style>.cls-1{fill:#64798a}.cls-2{fill:#3a556a}</style></defs><g id="Camada_2" data-name="Camada 2"><g id="Camada_1-2" data-name="Camada 1"><path class="cls-1" d="M66.87 64a.76.76 0 0 1-.26 0l-13.36-4.89H6.39A6.4 6.4 0 0 1 0 52.72V15.13a6.4 6.4 0 0 1 6.39-6.39h47a.75.75 0 0 1 0 1.5h-47a4.89 4.89 0 0 0-4.89 4.89v37.59a4.89 4.89 0 0 0 4.89 4.89h47a.74.74 0 0 1 .26 0l13.22 4.79 12.57-4.79a.75.75 0 0 1 .27 0h47a4.89 4.89 0 0 0 4.89-4.89V15.13a4.89 4.89 0 0 0-4.89-4.89h-47a.75.75 0 1 1 0-1.5h47a6.4 6.4 0 0 1 6.39 6.39v37.59a6.4 6.4 0 0 1-6.39 6.39H79.84L67.14 64a.75.75 0 0 1-.27 0z"/><path class="cls-2" d="M73.09 12.09c-2.4 2.4-11.19 2.4-13.59 0-1.11-1.11 0-6.27 0-6.27h13.59s1.11 5.18 0 6.27z"/><path fill="#2d93ba" d="M56.16 18.18l.47.8h.93l.46-.8.47.8h.59l-.95-5.04h-2.08l-.95 5.04h.6l.46-.8z"/><path class="cls-1" d="M66.07 0L55.51 4a.63.63 0 0 0 0 1.19l10.56 4a.63.63 0 0 0 .45 0l10.56-4a.63.63 0 0 0 0-1.19L66.52 0a.63.63 0 0 0-.45 0z"/><path class="cls-2" d="M57.74 13l-1.27-.07.48-7.28 9.19-1.64.31 1.23-8.29 1.41-.42 6.35z"/><ellipse cx="66.3" cy="4.63" rx="2.22" ry=".92" fill="#44c4a1"/><circle cx="57.09" cy="13.49" r="1.56" fill="#27a2db"/><path class="cls-2" d="M27.29 46.51h-17.1V45a.66.66 0 0 1 .51-.65l1.95-.35V24.58l-1.94-.37a.66.66 0 0 1-.51-.65v-1.43h8.17v1.43a.66.66 0 0 1-.51.65c-.27.07-1.87.37-1.94.37v19.14h8.78c.07-1 .17-1.8.2-1.94a.73.73 0 0 1 .72-.58h1.67zM46.22 29.25v1.46a.57.57 0 0 1-.51.61c-.1 0-.44.1-.92.2s-.78.17-.85.17l-8.55 19.9a1.17 1.17 0 0 1-1.09.75h-2.24l3.13-6.85-6.06-13.83a11.24 11.24 0 0 1-1.53-.34.57.57 0 0 1-.51-.61v-1.46h7.73v1.46a.57.57 0 0 1-.51.61c-.2.07-.82.2-1.91.41l3.85 9a10.54 10.54 0 0 1 .44 1.57c.2-.68.41-1.23.54-1.57l3.71-9c-.92-.2-1.53-.31-1.87-.37a.58.58 0 0 1-.48-.65v-1.43H45zM64.24 44.4a.57.57 0 0 1 .51.61v1.5h-3.2a1.47 1.47 0 0 1-1.16-.61l-5.65-7.08a1.19 1.19 0 0 0-.51-.44 2.29 2.29 0 0 0-.78-.1h-.82V44c.14 0 .75.14 1.91.37a.63.63 0 0 1 .54.65v1.46h-8V45a.6.6 0 0 1 .51-.65l1.97-.35V23.9q-1.63-.31-1.94-.41a.57.57 0 0 1-.51-.61v-1.47h5.52v14.75h.75a1.36 1.36 0 0 0 1.09-.48l3.88-4.15c-.14 0-.27-.07-.41-.07s-.41-.07-.54-.1a.63.63 0 0 1-.54-.65v-1.43h7.22v1.43a.57.57 0 0 1-.44.61c-.27.07-1 .2-2.11.41l-4 4.29a4.06 4.06 0 0 1-1 .92 3 3 0 0 1 1 1.06l4.77 6.06.89.14a7.07 7.07 0 0 0 1.09.2zM73.4 29a7.91 7.91 0 0 1 2.86.51A6 6 0 0 1 78.51 31 6.93 6.93 0 0 1 80 33.4a9.67 9.67 0 0 1 .54 3.27 2 2 0 0 1-.14 1 .79.79 0 0 1-.61.24H68.36a9.06 9.06 0 0 0 .41 2.86 5.61 5.61 0 0 0 1.16 2 4.38 4.38 0 0 0 1.7 1.23 5.65 5.65 0 0 0 2.18.41 6.82 6.82 0 0 0 2-.24 9.59 9.59 0 0 0 1.43-.58c.41-.2.75-.37 1-.55a1.36 1.36 0 0 1 .68-.27.63.63 0 0 1 .58.31l.85 1.12A5 5 0 0 1 79 45.28a7.71 7.71 0 0 1-1.67.85 12.2 12.2 0 0 1-1.84.48 11.63 11.63 0 0 1-1.87.17 8.77 8.77 0 0 1-3.3-.61 7.38 7.38 0 0 1-2.62-1.8 7.86 7.86 0 0 1-1.7-2.9 11.74 11.74 0 0 1-.61-4 9.53 9.53 0 0 1 .58-3.34 8.34 8.34 0 0 1 1.6-2.72 7.38 7.38 0 0 1 2.55-1.8 8.39 8.39 0 0 1 3.35-.61zm.1 2.21a4.55 4.55 0 0 0-3.44 1.26A6.21 6.21 0 0 0 68.49 36h9.36a5.74 5.74 0 0 0-.31-1.91 4.41 4.41 0 0 0-.82-1.53 4.15 4.15 0 0 0-1.4-1 4.71 4.71 0 0 0-1.87-.34zM90.42 45v1.46h-7.93V45a.66.66 0 0 1 .51-.6l2-.4V31.73l-2-.37a.66.66 0 0 1-.51-.65v-1.43H88V44l1.94.37a.66.66 0 0 1 .48.63zM84.5 24.68a1.77 1.77 0 0 1-.17-.82 1.9 1.9 0 0 1 .17-.86 2.62 2.62 0 0 1 .5-.7 2.45 2.45 0 0 1 .68-.48 2 2 0 0 1 1.63 0 2.44 2.44 0 0 1 .68.48 2.62 2.62 0 0 1 .48.72 2 2 0 0 1 .2.85 1.81 1.81 0 0 1-.2.82 2.39 2.39 0 0 1-1.16 1.16 2 2 0 0 1-1.63 0 2.39 2.39 0 0 1-1.16-1.16zM103.67 29.62a7.44 7.44 0 0 1 2.62 1.77 7.57 7.57 0 0 1 1.63 2.79 12 12 0 0 1 0 7.36 7.57 7.57 0 0 1-1.63 2.79 7.44 7.44 0 0 1-2.62 1.77 9.77 9.77 0 0 1-6.81 0 7.44 7.44 0 0 1-2.62-1.77 8.13 8.13 0 0 1-1.67-2.79 10.44 10.44 0 0 1-.57-3.68 10.44 10.44 0 0 1 .54-3.68 8.13 8.13 0 0 1 1.67-2.79 7.44 7.44 0 0 1 2.62-1.77 9.77 9.77 0 0 1 6.81 0zm.41 13.08a8.21 8.21 0 0 0 1.26-4.8 8.21 8.21 0 0 0-1.26-4.8 4.35 4.35 0 0 0-3.81-1.7 5.53 5.53 0 0 0-2.27.4 4.11 4.11 0 0 0-1.57 1.29 5.68 5.68 0 0 0-1 2 11.61 11.61 0 0 0-.34 2.79 11 11 0 0 0 .34 2.72 5.68 5.68 0 0 0 1 2A3.94 3.94 0 0 0 98 43.92a5.49 5.49 0 0 0 2.25.48 4.35 4.35 0 0 0 3.83-1.7zM117.12 29a14.57 14.57 0 0 1 4.49.92v4.43h-1.33a.51.51 0 0 1-.58-.48q0-.1-.2-2.25a12.07 12.07 0 0 0-2.66-.37 3.73 3.73 0 0 0-2.35.75 2 2 0 0 0-.92 1.57 1.79 1.79 0 0 0 .41 1.29 4.22 4.22 0 0 0 2 1.19c.85.27 1.57.44 2.11.65l1.63.61a5.06 5.06 0 0 1 1.43.89 3.58 3.58 0 0 1 1.4 3 5 5 0 0 1-1.67 4 6.76 6.76 0 0 1-4.56 1.6 17.76 17.76 0 0 1-5.58-.92v-4.55h1.23a.48.48 0 0 1 .51.41c0 .1.07.82.2 2.18a7.87 7.87 0 0 0 3.51.68 4 4 0 0 0 2.66-.85 2.3 2.3 0 0 0 .89-1.74 2.11 2.11 0 0 0-.41-1.43 3.49 3.49 0 0 0-1-.82 7 7 0 0 0-1.43-.54c-1.5-.48-2.55-.82-3.17-1.09a6.59 6.59 0 0 1-1.53-1 3.91 3.91 0 0 1-1.43-3.2 4.4 4.4 0 0 1 1.63-3.47 7 7 0 0 1 4.84-1.5z"/></g></g></svg>
