<svg xmlns="http://www.w3.org/2000/svg" viewBox="0 0 200 100"><g transform="translate(0 2)" fill-rule="nonzero" fill="none"><ellipse fill="#44C4A1" cx="99.633" cy="6.955" rx="3.333" ry="1.379"/><circle fill="#27A2DB" cx="85.802" cy="20.271" r="2.345"/><path d="M115.819 6.062l-15.82-6a.955.955 0 0 0-.671 0l-15.899 6a.955.955 0 0 0 0 1.78l2.136.808v-.164l10.864-1.932c.413-.565 1.695-.983 3.192-.983 1.842 0 3.334.615 3.334 1.378 0 .763-1.492 1.379-3.334 1.379a7.345 7.345 0 0 1-1.525-.153l-9.509 1.622 10.735 4.05a.955.955 0 0 0 .672 0l15.825-6a.955.955 0 0 0 0-1.785z" fill="#64798A"/><path d="M85.802 17.927c.368.001.73.09 1.057.26l.565-8.193 10.734-1.819c-1.073-.232-1.808-.69-1.808-1.226a.672.672 0 0 1 .141-.395l-10.91 1.92-.626 9.605c.27-.103.558-.155.847-.152z" fill="#3A556A"/><path d="M87.537 21.836a2.322 2.322 0 0 1-3.464 0l-1.26 6.69h.893l.7-1.215.701 1.214h1.401l.7-1.214.701 1.214h.893l-1.265-6.689z" fill="#2D93BA"/><path d="M115.819 6.062l-15.82-6a.955.955 0 0 0-.671 0l-15.899 6a.955.955 0 0 0 0 1.78l2.136.808v-.164l10.864-1.932c.413-.565 1.695-.983 3.192-.983 1.842 0 3.334.615 3.334 1.378 0 .763-1.492 1.379-3.334 1.379a7.345 7.345 0 0 1-1.525-.153l-9.509 1.622 10.735 4.05a.955.955 0 0 0 .672 0l15.825-6a.955.955 0 0 0 0-1.785z" fill="#64798A"/><path d="M115.819 6.062l-15.82-6a.955.955 0 0 0-.671 0l-15.899 6a.955.955 0 0 0 0 1.78l2.136.808v-.164l10.864-1.932c.413-.565 1.695-.983 3.192-.983 1.842 0 3.334.615 3.334 1.378 0 .763-1.492 1.379-3.334 1.379a7.345 7.345 0 0 1-1.525-.153l-9.509 1.622 10.735 4.05a.955.955 0 0 0 .672 0l15.825-6a.955.955 0 0 0 0-1.785z" fill="#64798A"/><path d="M100 13.847a.955.955 0 0 1-.672 0l-10.113-3.824c-.39 2.26-1 6.904.242 8.146 3.61 3.61 16.814 3.61 20.424 0 1.243-1.242.633-5.875.243-8.146L100 13.847z" fill="#3A556A"/><path d="M190.395 13.13h-70.621a1.13 1.13 0 1 0 0 2.26h70.621a7.345 7.345 0 0 1 7.345 7.344v56.497a7.345 7.345 0 0 1-7.345 7.345h-70.621a1.13 1.13 0 0 0-.401.074l-18.887 7.197-19.876-7.203a1.13 1.13 0 0 0-.384-.068H9.605a7.345 7.345 0 0 1-7.345-7.345V22.734a7.345 7.345 0 0 1 7.345-7.344h70.62a1.13 1.13 0 0 0 0-2.26H9.606A9.605 9.605 0 0 0 0 22.734v56.497c0 5.305 4.3 9.605 9.605 9.605h70.423l20.08 7.277c.253.094.531.094.784 0l19.085-7.271h70.418c5.305 0 9.605-4.3 9.605-9.605V22.74a9.605 9.605 0 0 0-9.605-9.61z" fill="#3A556A"/><path d="M16.085 66.723a.989.989 0 0 0-.769.972v2.203h25.695v-7.983h-2.508c-.519 0-.967.363-1.074.87-.05.204-.203 1.486-.305 2.915H23.915V36.938c.102 0 2.509-.458 2.915-.565a.989.989 0 0 0 .769-.972v-2.147H15.316v2.147a.989.989 0 0 0 .769.972c.463.102 2.915.565 2.915.565v29.22s-2.452.463-2.915.565zM51.554 78.65c.727 0 1.38-.45 1.638-1.13l12.847-29.887c.102 0 .565-.102 1.277-.255.712-.152 1.226-.305 1.384-.305a.853.853 0 0 0 .791-.92v-2.204L67.65 44h-9.605v2.148a.864.864 0 0 0 .718.972c.514.101 1.435.254 2.824.565l-5.655 13.514a28.548 28.548 0 0 0-.82 2.356 15.82 15.82 0 0 0-.666-2.356L48.69 47.689c1.639-.305 2.56-.514 2.865-.616a.853.853 0 0 0 .768-.92v-2.204H40.678v2.203a.853.853 0 0 0 .768.921c.756.225 1.526.397 2.305.514l9.136 20.774L48.18 78.65h3.373zM80.226 54.339h-1.13V32.203h-8.3v2.204a.853.853 0 0 0 .769.92c.309.102 1.28.308 2.915.616v30.249l-2.915.565a.904.904 0 0 0-.769.972v2.203h11.978V67.73a.944.944 0 0 0-.82-.972c-1.74-.356-2.66-.565-2.864-.565v-8.678h1.226a3.44 3.44 0 0 1 1.175.153c.316.143.582.374.769.666l8.474 10.644a2.209 2.209 0 0 0 1.74.921h4.814v-2.26a.853.853 0 0 0-.768-.92h.09a10.633 10.633 0 0 1-1.638-.306l-1.334-.203-7.197-9.107a4.57 4.57 0 0 0-1.537-1.588 6.102 6.102 0 0 0 1.486-1.384l6.04-6.446c1.694-.306 2.762-.515 3.174-.616a.859.859 0 0 0 .667-.921V44H85.424v2.147a.944.944 0 0 0 .819.972c.203.05.407.05.819.152.203 0 .407.102.616.102l-5.825 6.248a2.034 2.034 0 0 1-1.627.718zM101.695 66.667a11.096 11.096 0 0 0 3.955 2.711 13.18 13.18 0 0 0 4.966.921 17.475 17.475 0 0 0 2.824-.254 18.339 18.339 0 0 0 2.763-.717c.885-.322 1.728-.751 2.509-1.277a7.537 7.537 0 0 0 2.045-1.74l-1.277-1.695a.95.95 0 0 0-.87-.464 2.04 2.04 0 0 0-1.023.407c-.406.254-.92.514-1.536.82-.691.347-1.41.638-2.147.87-.966.262-1.966.382-2.966.355a8.475 8.475 0 0 1-3.277-.615 6.576 6.576 0 0 1-2.56-1.842 8.43 8.43 0 0 1-1.74-2.966 13.61 13.61 0 0 1-.615-4.3h17.197c.344.021.68-.109.921-.356.186-.454.255-.947.204-1.435a14.531 14.531 0 0 0-.82-4.915 10.418 10.418 0 0 0-2.26-3.633 9.006 9.006 0 0 0-3.39-2.203 11.864 11.864 0 0 0-4.265-.768c-1.715-.021-3.417.31-5 .971a11.085 11.085 0 0 0-3.836 2.712 12.537 12.537 0 0 0-2.407 4.096 14.328 14.328 0 0 0-.87 5.017 17.638 17.638 0 0 0 .921 5.938 11.808 11.808 0 0 0 2.554 4.362zm3.582-17.86c1.226-1.276 2.966-1.892 5.17-1.892l-.052.051a7.08 7.08 0 0 1 2.825.514c.795.344 1.509.85 2.096 1.486.558.68.975 1.463 1.226 2.305.315.922.472 1.89.463 2.864h-14.067a9.328 9.328 0 0 1 2.35-5.322l-.011-.005zM128.729 38.83a3.073 3.073 0 0 0 2.457 0 3.593 3.593 0 0 0 1.74-1.74c.197-.379.301-.799.305-1.226a2.932 2.932 0 0 0-.305-1.276 3.955 3.955 0 0 0-.717-1.074 3.672 3.672 0 0 0-1.023-.746 3.073 3.073 0 0 0-2.457 0 3.678 3.678 0 0 0-1.046.74 3.955 3.955 0 0 0-.717 1.074c-.182.4-.269.837-.254 1.277-.015.423.073.843.254 1.226a3.593 3.593 0 0 0 1.74 1.74l.023.005zM124.74 66.723a.989.989 0 0 0-.768.972v2.203h11.926v-2.203a.989.989 0 0 0-.768-.972c-.458-.102-2.916-.565-2.916-.565V44h-8.242v2.147a.989.989 0 0 0 .768.972c.463.101 2.966.565 2.966.565v18.474s-2.508.463-2.966.565zM145.565 69.282a14.69 14.69 0 0 0 10.237 0 11.175 11.175 0 0 0 3.955-2.66 11.379 11.379 0 0 0 2.457-4.198 17.994 17.994 0 0 0 0-11.057 11.379 11.379 0 0 0-2.457-4.198 11.175 11.175 0 0 0-3.955-2.66 14.69 14.69 0 0 0-10.237 0 11.175 11.175 0 0 0-3.955 2.66 12.226 12.226 0 0 0-2.509 4.198 15.69 15.69 0 0 0-.819 5.526c-.06 1.876.218 3.747.82 5.525a12.226 12.226 0 0 0 2.508 4.198 11.175 11.175 0 0 0 3.955 2.666zm-2.062-16.48a8.542 8.542 0 0 1 1.452-3.085 6.175 6.175 0 0 1 2.355-1.943 8.305 8.305 0 0 1 3.39-.616c2.56 0 4.52.82 5.735 2.56 1.214 1.74 1.892 4.146 1.892 7.214 0 3.068-.666 5.475-1.892 7.215-1.226 1.74-3.175 2.56-5.735 2.56a8.243 8.243 0 0 1-3.39-.718 5.92 5.92 0 0 1-2.355-1.842 8.542 8.542 0 0 1-1.435-3.068 16.588 16.588 0 0 1-.515-4.096 17.452 17.452 0 0 1 .498-4.18zM178.53 65.751a6.023 6.023 0 0 1-3.994 1.277 11.825 11.825 0 0 1-5.27-1.022c-.204-2.046-.306-3.125-.306-3.277a.723.723 0 0 0-.768-.616h-1.842v6.78a26.69 26.69 0 0 0 8.395 1.384 10.17 10.17 0 0 0 6.86-2.407 7.514 7.514 0 0 0 2.508-5.938 5.373 5.373 0 0 0-2.096-4.52 7.61 7.61 0 0 0-2.147-1.333l-2.47-.92c-.818-.306-1.892-.566-3.174-.973a6.339 6.339 0 0 1-2.966-1.79 2.684 2.684 0 0 1-.639-1.944c0-.87.463-1.639 1.384-2.356a5.61 5.61 0 0 1 3.531-1.13h.051c1.349.04 2.688.229 3.995.565.203 2.15.305 3.28.305 3.39a.768.768 0 0 0 .904.706h1.994v-6.65a21.955 21.955 0 0 0-6.729-1.378c-3.158 0-5.508.717-7.243 2.26a6.616 6.616 0 0 0-2.457 5.22 5.87 5.87 0 0 0 2.147 4.814 9.898 9.898 0 0 0 2.305 1.435c.92.406 2.508.92 4.757 1.638a10.48 10.48 0 0 1 2.147.82 5.249 5.249 0 0 1 1.536 1.225 3.17 3.17 0 0 1 .616 2.147 3.452 3.452 0 0 1-1.333 2.593z" fill="#3A556A"/></g></svg>
