<svg xmlns="http://www.w3.org/2000/svg" viewBox="0 0 150 42"><path d="M19.519 27.019c0 .178-.179 1.31-.268 2.572H7.589V4.201c.09 0 2.215-.406 2.573-.496a.874.874 0 0 0 .675-.854V.993H0v1.858a.874.874 0 0 0 .675.854c.408.09 2.573.497 2.573.497v25.826s-2.165.408-2.573.497A.874.874 0 0 0 0 31.38v1.987h22.678v-7.053h-2.215a.993.993 0 0 0-.944.706zM37.677 10.44v1.897a.765.765 0 0 0 .636.854c.447.09 1.261.229 2.483.497l-4.966 11.92a27.634 27.634 0 0 0-.726 2.076c-.141-.706-.337-1.4-.586-2.076l-5.105-11.92c1.45-.268 2.254-.447 2.533-.546a.755.755 0 0 0 .675-.815v-1.986H22.41v1.986a.755.755 0 0 0 .675.815 14.9 14.9 0 0 0 1.987.447l8.046 18.347-4.113 9.089h2.98a1.55 1.55 0 0 0 1.45-.994L44.77 13.648c.089 0 .496-.089 1.132-.228.636-.14 1.083-.268 1.222-.268a.755.755 0 0 0 .675-.815v-1.986H46.17l-8.493.089zM71.699 30.495a9.387 9.387 0 0 1-1.45-.268l-1.173-.179-6.327-8.046a4.033 4.033 0 0 0-1.351-1.4 5.384 5.384 0 0 0 1.311-1.222l5.334-5.692c1.49-.268 2.444-.447 2.802-.546a.755.755 0 0 0 .586-.815V10.44h-9.536v1.897c-.014.429.3.799.725.854.179 0 .357 0 .725.14.179 0 .357.089.546.089l-5.155 5.513c-.36.425-.895.66-1.45.636h-.994V0h-7.32v1.987a.755.755 0 0 0 .675.814c.271.093 1.129.275 2.573.547v26.65l-2.553.497a.795.795 0 0 0-.676.855v1.986h10.56V31.35a.834.834 0 0 0-.726-.855c-1.54-.318-2.354-.496-2.533-.496v-7.64h1.083a3.04 3.04 0 0 1 .993.14c.277.126.512.33.676.586l7.51 9.397c.36.494.928.794 1.539.815h4.251V31.31a.755.755 0 0 0-.645-.815zM90.632 12.695a7.947 7.947 0 0 0-2.98-1.987 10.48 10.48 0 0 0-3.765-.675 11.096 11.096 0 0 0-4.42.894 9.784 9.784 0 0 0-3.388 2.394 11.066 11.066 0 0 0-2.125 3.615 12.645 12.645 0 0 0-.765 4.43c-.03 1.783.245 3.557.814 5.245a10.43 10.43 0 0 0 2.255 3.845 9.794 9.794 0 0 0 3.477 2.394c1.394.55 2.881.827 4.38.814a15.426 15.426 0 0 0 2.484-.228 16.191 16.191 0 0 0 2.453-.656 10.231 10.231 0 0 0 2.215-1.132c.69-.401 1.303-.923 1.808-1.54l-1.132-1.49a.834.834 0 0 0-.765-.407 1.798 1.798 0 0 0-.904.357c-.357.229-.814.447-1.35.725-.612.306-1.246.562-1.898.765a9.05 9.05 0 0 1-2.622.318 7.5 7.5 0 0 1-2.891-.546 5.801 5.801 0 0 1-2.255-1.63 7.44 7.44 0 0 1-1.54-2.622 12.01 12.01 0 0 1-.556-3.725H92.38c.305.019.603-.097.815-.318.167-.408.228-.852.178-1.29a12.834 12.834 0 0 0-.755-4.352 9.198 9.198 0 0 0-1.986-3.198zM77.35 19.38a8.235 8.235 0 0 1 2.116-4.699 6.04 6.04 0 0 1 4.56-1.668c.849-.022 1.694.13 2.482.447.7.304 1.33.75 1.848 1.31a5.85 5.85 0 0 1 1.043 2.117c.278.815.416 1.671.407 2.533l-12.456-.04zM105.76 30.495c-.407-.09-2.573-.496-2.573-.496v-19.56h-7.27v1.898a.874.874 0 0 0 .675.854c.407.09 2.622.497 2.622.497v16.31s-2.215.408-2.622.497a.874.874 0 0 0-.676.855v1.986h10.53V31.35a.874.874 0 0 0-.686-.855zM127.494 13.241a9.864 9.864 0 0 0-3.476-2.354 12.913 12.913 0 0 0-9.04 0 9.864 9.864 0 0 0-3.476 2.354 10.788 10.788 0 0 0-2.235 3.705 13.907 13.907 0 0 0-.725 4.878c-.051 1.656.194 3.307.725 4.877a10.788 10.788 0 0 0 2.215 3.705 9.864 9.864 0 0 0 3.476 2.354 12.913 12.913 0 0 0 9.04 0 9.864 9.864 0 0 0 3.476-2.354 10.043 10.043 0 0 0 2.166-3.705 14.9 14.9 0 0 0 .765-4.877 14.9 14.9 0 0 0-.765-4.878 10.043 10.043 0 0 0-2.146-3.705zm-2.98 15a5.771 5.771 0 0 1-5.056 2.254 7.281 7.281 0 0 1-2.98-.635 5.225 5.225 0 0 1-2.076-1.63 7.54 7.54 0 0 1-1.261-2.711 14.642 14.642 0 0 1-.447-3.616 15.407 15.407 0 0 1 .447-3.705 7.54 7.54 0 0 1 1.261-2.712 5.453 5.453 0 0 1 2.076-1.718 7.33 7.33 0 0 1 2.98-.547 5.771 5.771 0 0 1 5.056 2.255 10.927 10.927 0 0 1 1.719 6.377 10.927 10.927 0 0 1-1.679 6.387h-.04zM147.152 22.27a6.715 6.715 0 0 0-1.897-1.172l-2.215-.814c-.725-.268-1.669-.497-2.801-.854a5.592 5.592 0 0 1-2.583-1.55 2.374 2.374 0 0 1-.546-1.718c.05-.849.504-1.621 1.222-2.077a4.967 4.967 0 0 1 3.119-.993c1.19.034 2.373.2 3.526.497.179 1.9.268 2.894.268 2.98a.675.675 0 0 0 .765.636h1.758v-5.91a19.38 19.38 0 0 0-5.96-1.223c-2.791 0-4.857.636-6.397 1.987a5.84 5.84 0 0 0-2.165 4.61 5.185 5.185 0 0 0 1.897 4.25c.602.509 1.27.933 1.987 1.262.814.358 2.215.815 4.201 1.45a9.248 9.248 0 0 1 1.898.726c.514.272.972.64 1.35 1.082.407.545.601 1.22.547 1.898a3.05 3.05 0 0 1-1.093 2.304 5.314 5.314 0 0 1-3.486 1.152 10.44 10.44 0 0 1-4.659-.904c-.179-1.807-.268-2.751-.268-2.89a.636.636 0 0 0-.676-.547h-1.629v5.96c2.39.801 4.891 1.214 7.41 1.222a8.94 8.94 0 0 0 6.05-2.125A6.635 6.635 0 0 0 149 26.254a4.748 4.748 0 0 0-1.848-3.983z"/></svg>
